<svg xmlns="http://www.w3.org/2000/svg" xmlns:xlink="http://www.w3.org/1999/xlink" version="1.1" width="1080" height="1080" viewBox="0 0 1080 1080" xml:space="preserve">
<desc>Created with Fabric.js 5.2.4</desc>
<defs>
</defs>
<rect x="0" y="0" width="100%" height="100%" fill="transparent"/>
<g transform="matrix(1 0 0 1 540 540)" id="ea590800-62fe-44a9-8c61-99cadf683cbb">
<rect style="stroke: none; stroke-width: 1; stroke-dasharray: none; stroke-linecap: butt; stroke-dashoffset: 0; stroke-linejoin: miter; stroke-miterlimit: 4; fill: rgb(255,255,255); fill-rule: nonzero; opacity: 1; visibility: hidden;" vector-effect="non-scaling-stroke" x="-540" y="-540" rx="0" ry="0" width="1080" height="1080"/>
</g>
<g transform="matrix(1 0 0 1 540 540)" id="07b29783-dd25-4fbc-b005-edb31eb891bf">
</g>
<g transform="matrix(5.3 0 0 5.3 540.48 542.08)" id="70544cd1-0660-41f0-878a-1cca36c3a00a">
<path style="stroke: rgb(2,2,2); stroke-width: 0; stroke-dasharray: none; stroke-linecap: butt; stroke-dashoffset: 0; stroke-linejoin: miter; stroke-miterlimit: 4; fill: rgb(248,248,248); fill-rule: nonzero; opacity: 1;" vector-effect="non-scaling-stroke" transform=" translate(-100, -100)" d="M 11.14266 100 C 11.14266 50.92547 50.92543 11.142700000000005 99.99995999999999 11.142700000000005 C 149.07449 11.142700000000005 188.85726 50.925470000000004 188.85726 100 C 188.85726 149.07453 149.07449 188.8573 99.99996 188.8573 C 50.92543 188.8573 11.142660000000006 149.07453 11.142660000000006 100.00000000000001 z M 92.02418 120.74695 L 178.88357000000002 120.74695 L 128.40680000000003 36.18196999999999 L 21.116350000000025 120.74695 L 51.54444000000002 120.74695 L 123.21709000000003 64.26104000000001 L 145.66942000000003 101.90010000000001 L 116.22464000000002 101.90010000000001 z M 199.98142 101.97066 L 199.95784 102.96920999999999 L 199.92461 103.96811999999998 L 199.88138 104.96630999999998 L 199.82851 105.96449999999997 L 199.76599 106.96232999999997 L 199.69347 107.95908999999996 L 199.6113 108.95549999999996 L 199.51877 109.95118999999995 L 199.41658999999999 110.94616999999995 L 199.30441 111.93971999999995 L 199.18223 112.93219999999995 L 199.05004 113.92395999999995 L 198.90785 114.91393999999995 L 198.75566 115.90248999999996 L 198.59311 116.88960999999996 L 198.42091 117.87529999999997 L 198.23835 118.85883999999997 L 198.04579 119.84059999999997 L 197.84322 120.82020999999996 L 197.63101 121.79803999999996 L 197.40844 122.77336999999996 L 197.17586 123.74654999999996 L 196.93364 124.71722999999996 L 196.68141 125.68540999999996 L 196.41918 126.65108999999997 L 196.1473 127.61390999999996 L 195.86578 128.57351999999997 L 195.57461 129.53062999999997 L 195.27344 130.48451999999997 L 194.96298 131.43519999999998 L 194.64287 132.38302 L 194.31312 133.32691 L 193.97408 134.26794 L 193.62610999999998 135.20504 L 193.26848999999999 136.13891999999998 L 192.90194 137.06887999999998 L 192.52609999999999 137.99490999999998 L 192.14132999999998 138.91735999999997 L 191.91483 139.44860999999997 L 191.51791 140.36069999999998 L 191.11027 141.27315 L 190.6937 142.18167 L 190.26784 143.08626 L 189.83341000000001 143.98656 L 189.38969 144.88258 L 188.93704 145.77430999999999 L 188.47581 146.66138999999998 L 188.00529 147.54382999999999 L 187.52584 148.42162 L 187.03781999999998 149.29477 L 186.54086999999998 150.16291999999999 L 186.03499 151.02570999999998 L 185.52052999999998 151.88349999999997 L 184.99749999999997 152.73628999999997 L 184.46553999999998 153.58371999999997 L 183.92499999999998 154.42542999999998 L 183.37588999999997 155.26178 L 182.81855999999996 156.09241999999998 L 182.25265999999996 156.91733999999997 L 181.67817999999997 157.73653999999996 L 181.09583999999998 158.54966999999996 L 180.50492999999997 159.35707999999997 L 179.90615999999997 160.15841999999998 L 179.29916999999998 160.95332999999997 L 178.68431999999999 161.74216999999996 L 178.06160999999997 162.52492999999996 L 177.43103999999997 163.30089999999996 L 176.79260999999997 164.07079999999996 L 176.14703999999998 164.83426999999998 L 175.49361 165.59130999999996 L 174.83266999999998 166.34155999999996 L 174.16458999999998 167.08501999999996 L 173.48935999999998 167.82204999999996 L 172.80698999999998 168.55229999999997 L 172.11783 169.27575999999996 L 171.42152 169.99278999999996 L 170.71842999999998 170.70266999999996 L 170.30935999999997 171.10958999999997 L 169.59911999999997 171.80553999999998 L 168.87851999999998 172.49791999999997 L 168.15148999999997 173.18314999999996 L 167.41766999999996 173.86158999999995 L 166.67705999999995 174.53288999999995 L 165.92966999999996 175.19703999999996 L 165.17584999999997 175.85368999999997 L 164.41558999999998 176.50283999999996 L 163.64854999999997 177.14447999999996 L 162.87542999999997 177.77825999999996 L 162.09552999999997 178.40453999999997 L 161.30954999999997 179.02295999999996 L 160.51749999999998 179.63351999999995 L 159.71901999999997 180.23621999999995 L 158.91445999999996 180.83034999999995 L 158.10382999999996 181.41661999999997 L 157.28747999999996 181.99466999999996 L 156.46505999999997 182.56449999999995 L 155.63691999999998 183.12575999999996 L 154.80306999999996 183.67844999999997 L 153.96385999999995 184.22291999999996 L 153.11892999999995 184.75880999999995 L 152.26863999999995 185.28576999999996 L 151.41299999999995 185.80415999999997 L 150.55234999999996 186.31396999999996 L 149.68669999999997 186.81484999999995 L 148.81568999999996 187.30715999999995 L 147.94003999999995 187.79017999999996 L 147.05938999999995 188.26461999999995 L 146.17444999999995 188.73048999999995 L 145.28450999999995 189.18706999999995 L 144.39063999999996 189.63471999999996 L 143.49211999999997 190.07343999999995 L 142.58931999999996 190.50322999999995 L 141.68258999999995 190.92372999999995 L 140.77156999999994 191.33564999999996 L 139.85697999999994 191.73863999999995 L 138.93845999999994 192.13233999999994 L 138.03100999999992 192.51103999999995 L 137.10497999999993 192.88723999999996 L 136.17537999999993 193.25414999999995 L 135.24184999999994 193.61212999999995 L 134.30474999999996 193.96081999999996 L 133.36442999999994 194.29985999999997 L 132.42017999999993 194.62996999999996 L 131.47307999999992 194.95042999999995 L 130.52239999999992 195.26124999999996 L 129.56886999999992 195.56277999999998 L 128.61175999999992 195.85430999999997 L 127.65214999999992 196.13654999999997 L 126.68967999999992 196.40877999999998 L 125.72399999999992 196.67100999999997 L 124.75617999999992 196.92358999999996 L 123.78549999999991 197.16652999999997 L 122.81266999999991 197.39910999999998 L 121.83698999999991 197.62203999999997 L 120.85951999999992 197.83496999999997 L 119.87990999999992 198.03789999999998 L 118.89814999999993 198.23081999999997 L 117.91460999999993 198.41373999999996 L 116.92891999999992 198.58629999999997 L 115.94215999999992 198.74920999999998 L 114.95325999999991 198.90175999999997 L 113.96327999999991 199.04466999999997 L 112.97187999999991 199.17720999999997 L 111.97904999999992 199.29974999999996 L 110.98549999999992 199.41228999999996 L 109.99051999999992 199.51517999999996 L 108.99482999999992 199.60770999999997 L 107.99841999999992 199.69058999999996 L 107.00129999999993 199.76346999999996 L 106.00346999999994 199.82634999999996 L 105.00527999999994 199.87957999999998 L 104.00708999999995 199.92280999999997 L 103.00817999999995 199.95674999999997 L 102.00926999999996 199.98068999999998 L 101.01000999999995 199.99497999999997 L 100.01109999999996 199.99997999999997 L 99.02826999999995 199.99533999999997 L 98.02935999999995 199.98140999999998 L 97.03080999999996 199.95782999999997 L 96.03189999999996 199.92459999999997 L 95.03370999999997 199.88136999999998 L 94.03551999999998 199.82849999999996 L 93.03803999999998 199.76597999999996 L 92.04091999999999 199.69345999999996 L 91.04450999999999 199.61128999999997 L 90.04881999999999 199.51875999999996 L 89.0542 199.41657999999995 L 88.06029 199.30439999999996 L 87.06781 199.18221999999997 L 86.07605 199.05002999999996 L 85.08606999999999 198.90783999999996 L 84.09751999999999 198.75564999999997 L 83.11039999999998 198.59309999999996 L 82.12470999999998 198.42089999999996 L 81.14116999999997 198.23833999999997 L 80.15940999999998 198.04577999999998 L 79.17979999999999 197.84320999999997 L 78.20196999999999 197.63099999999997 L 77.22663999999999 197.40842999999998 L 76.25345999999999 197.17584999999997 L 75.28277999999999 196.93362999999997 L 74.31459999999998 196.68139999999997 L 73.34891999999998 196.41916999999998 L 72.38609999999998 196.14728999999997 L 71.42648999999999 195.86576999999997 L 70.46937999999999 195.57459999999998 L 69.51548999999999 195.27342999999996 L 68.56480999999998 194.96296999999996 L 67.61698999999999 194.64285999999996 L 66.67309999999999 194.31310999999997 L 65.73207 193.97406999999995 L 64.79496999999999 193.62609999999995 L 63.86108999999999 193.26847999999995 L 62.93112999999999 192.90192999999996 L 62.00509999999999 192.52608999999995 L 61.082649999999994 192.14131999999995 L 60.55103999999999 191.91481999999996 L 59.639309999999995 191.51789999999997 L 58.726859999999995 191.11025999999998 L 57.81833999999999 190.69368999999998 L 56.913709999999995 190.26782999999998 L 56.013369999999995 189.83339999999998 L 55.11731999999999 189.38967999999997 L 54.22565999999999 188.93702999999996 L 53.33850999999999 188.47544999999997 L 52.45595999999999 188.00528999999997 L 51.57816999999999 187.52583999999996 L 50.70515999999999 187.03781999999995 L 49.83711999999999 186.54086999999996 L 48.974079999999994 186.03498999999996 L 48.11617999999999 185.52052999999995 L 47.263569999999994 184.99749999999995 L 46.41629 184.46553999999995 L 45.574439999999996 183.92499999999995 L 44.738119999999995 183.37588999999994 L 43.90745 182.81855999999993 L 43.08249 182.25265999999993 L 42.26332 181.67817999999994 L 41.45008 181.09583999999995 L 40.64281 180.50492999999994 L 39.84158 179.90615999999994 L 39.04649 179.29916999999995 L 38.257619999999996 178.68431999999996 L 37.474999999999994 178.06160999999994 L 36.698739999999994 177.43103999999994 L 35.928869999999996 176.79260999999994 L 35.16551 176.14667999999995 L 34.408649999999994 175.49359999999996 L 33.658359999999995 174.83265999999995 L 32.91468 174.16457999999994 L 32.177679999999995 173.48934999999994 L 31.447399999999995 172.80697999999995 L 30.723869999999994 172.11781999999997 L 30.007129999999993 171.42150999999996 L 29.297209999999993 170.71841999999995 L 28.89013999999999 170.30934999999994 L 28.19432999999999 169.59910999999994 L 27.50194999999999 168.87850999999995 L 26.81650999999999 168.15147999999994 L 26.13809999999999 167.41765999999993 L 25.46686999999999 166.67704999999992 L 24.80287999999999 165.92965999999993 L 24.14623999999999 165.17583999999994 L 23.49704999999999 164.41557999999995 L 22.855409999999992 163.64853999999994 L 22.22142999999999 162.87541999999993 L 21.595169999999992 162.09551999999994 L 20.97675999999999 161.30953999999994 L 20.366269999999993 160.51748999999995 L 19.763759999999994 159.71900999999994 L 19.169359999999994 158.91444999999993 L 18.583119999999994 158.10381999999993 L 18.005119999999994 157.28746999999993 L 17.435429999999993 156.46504999999993 L 16.874169999999992 155.63690999999994 L 16.321309999999993 154.80305999999993 L 15.776979999999993 153.96384999999992 L 15.241229999999993 153.11891999999992 L 14.714089999999993 152.26862999999992 L 14.195629999999994 151.41298999999992 L 13.685919999999994 150.55233999999993 L 13.184969999999995 149.68668999999994 L 12.692799999999995 148.81567999999993 L 12.209489999999995 147.94002999999992 L 11.735049999999996 147.05937999999992 L 11.269499999999995 146.17443999999992 L 10.812879999999996 145.28449999999992 L 10.365229999999997 144.39062999999993 L 9.926509999999997 143.49210999999994 L 9.496759999999997 142.58930999999993 L 9.075979999999996 141.68257999999992 L 8.664159999999995 140.7715599999999 L 8.261309999999995 139.8569699999999 L 7.867429999999994 138.9384499999999 L 7.488589999999994 138.0309999999999 L 7.112609999999994 137.1049699999999 L 6.745629999999994 136.1753699999999 L 6.387759999999994 135.2418399999999 L 6.039179999999994 134.30473999999992 L 5.699889999999994 133.3644199999999 L 5.369959999999994 132.4201699999999 L 5.049499999999994 131.4730699999999 L 4.738569999999994 130.5223899999999 L 4.437219999999994 129.5684999999999 L 4.145509999999994 128.6117499999999 L 3.8634899999999934 127.65213999999989 L 3.5912599999999935 126.6896699999999 L 3.3287799999999934 125.72398999999989 L 3.0761999999999934 124.75616999999988 L 2.8334399999999933 123.78548999999988 L 2.6006499999999932 122.81265999999988 L 2.3777899999999934 121.83697999999988 L 2.1648999999999936 120.85950999999989 L 1.9620099999999936 119.87989999999989 L 1.7691599999999936 118.8981399999999 L 1.5863099999999937 117.9145999999999 L 1.4134999999999938 116.92890999999989 L 1.2507699999999937 115.94214999999988 L 1.0980399999999937 114.95324999999988 L 0.9553799999999937 113.96326999999988 L 0.8227599999999937 112.97186999999988 L 0.7001099999999937 111.97903999999988 L 0.5874999999999937 110.98548999999988 L 0.4848899999999937 109.99050999999989 L 0.3922199999999937 108.99481999999989 L 0.30943999999999366 107.9984099999999 L 0.23658999999999367 107.0012899999999 L 0.17356999999999367 106.0034599999999 L 0.12040999999999367 105.00526999999991 L 0.07696999999999368 104.00671999999992 L 0.043279999999993685 103.00816999999992 L 0.019239999999993686 102.00925999999993 L 0.004839999999993686 101.00999999999992 L -0.00002000000000631358 100.01108999999992 L 0.0044499999999936864 99.02825999999992 L 0.018529999999993687 98.02970999999992 L 0.04217999999999369 97.03079999999993 L 0.07547999999999369 96.03224999999993 L 0.1185299999999937 95.03369999999994 L 0.1713299999999937 94.03550999999995 L 0.23391999999999372 93.03799999999994 L 0.30640999999999374 92.04091999999994 L 0.3887599999999938 91.04450999999995 L 0.4810099999999938 90.04888999999994 L 0.5832599999999938 89.05415999999994 L 0.6954799999999938 88.06039999999994 L 0.8176599999999937 87.06774999999995 L 0.9498799999999937 86.07634999999995 L 1.0921399999999937 85.08622999999994 L 1.2444399999999938 84.09757999999994 L 1.4067799999999937 83.11045999999993 L 1.5791599999999937 82.12501999999994 L 1.7616099999999937 81.14132999999994 L 1.9540699999999938 80.15953999999994 L 2.156529999999994 79.17974999999994 L 2.3690299999999938 78.20205999999995 L 2.5914999999999937 77.22662999999994 L 2.823899999999994 76.25347999999994 L 3.066229999999994 75.28279999999994 L 3.3184599999999937 74.31461999999993 L 3.580549999999994 73.34911999999993 L 3.852429999999994 72.38636999999993 L 4.134059999999994 71.42643999999993 L 4.425409999999994 70.46947999999993 L 4.726399999999994 69.51558999999993 L 5.036969999999994 68.56480999999994 L 5.357079999999994 67.61730999999993 L 5.686649999999994 66.67309999999993 L 6.025589999999994 65.73231999999993 L 6.373889999999994 64.79503999999993 L 6.731399999999994 63.86136999999993 L 7.098089999999994 62.93133999999993 L 7.473819999999994 62.00505999999993 L 7.858589999999993 61.08261999999993 L 8.085019999999993 60.55116999999993 L 8.481899999999992 59.63931999999993 L 8.889609999999992 58.72682999999993 L 9.306319999999992 57.81828999999993 L 9.731999999999992 56.913799999999924 L 10.166649999999992 56.01347999999992 L 10.610259999999991 55.117439999999924 L 11.062799999999992 54.22579999999992 L 11.524279999999992 53.33864999999992 L 11.994689999999991 52.45609999999992 L 12.473959999999991 51.57826999999992 L 12.962119999999992 50.705299999999916 L 13.459069999999992 49.83721999999992 L 13.964849999999991 48.97421999999992 L 14.479339999999992 48.11631999999992 L 15.002549999999992 47.26370999999992 L 15.534409999999992 46.41642999999992 L 16.074879999999993 45.57457999999992 L 16.623889999999992 44.73825999999992 L 17.181399999999993 43.90758999999992 L 17.747299999999992 43.082629999999924 L 18.32156999999999 42.263459999999924 L 18.904119999999992 41.45021999999992 L 19.49486999999999 40.64290999999992 L 20.093749999999993 39.84170999999992 L 20.70067999999999 39.04661999999992 L 21.31556999999999 38.25770999999992 L 21.93833999999999 37.475129999999915 L 22.56888999999999 36.698869999999914 L 23.20713999999999 35.92899999999992 L 23.852989999999988 35.16559999999992 L 24.506339999999987 34.408739999999916 L 25.167099999999987 33.65844999999992 L 25.835159999999988 32.91476999999992 L 26.51041999999999 32.17776999999992 L 27.19275999999999 31.447489999999917 L 27.88209999999999 30.723959999999916 L 28.57832999999999 30.007219999999915 L 29.28134999999999 29.297269999999916 L 29.690629999999988 28.890129999999917 L 30.40082999999999 28.194319999999916 L 31.121209999999987 27.501939999999916 L 31.848379999999988 26.816499999999916 L 32.58226999999999 26.138129999999915 L 33.322879999999984 25.466869999999915 L 34.070129999999985 24.802899999999916 L 34.82398999999999 24.146249999999917 L 35.584389999999985 23.497069999999916 L 36.351249999999986 22.855429999999917 L 37.12457999999999 22.221399999999917 L 37.90430999999999 21.595119999999916 L 38.690319999999986 20.976699999999916 L 39.48258999999999 20.366499999999917 L 40.28103999999999 19.763799999999918 L 41.08555999999999 19.169309999999918 L 41.896079999999984 18.58303999999992 L 42.712569999999985 18.00534999999992 L 43.534919999999985 17.43551999999992 L 44.363019999999985 16.874259999999918 L 45.19679999999998 16.32156999999992 L 46.03618999999998 15.777099999999919 L 46.88104999999998 15.241209999999919 L 47.73129999999998 14.714249999999918 L 48.58683999999998 14.195859999999918 L 49.447589999999984 13.686049999999918 L 50.31344999999998 13.185169999999918 L 51.18427999999998 12.692859999999918 L 52.05996999999998 12.209479999999918 L 52.94047999999998 11.735039999999918 L 53.82559999999998 11.269529999999918 L 54.71532999999998 10.812949999999917 L 55.60948999999998 10.365299999999918 L 56.50796999999998 9.926579999999918 L 57.41069999999998 9.496789999999917 L 58.31742999999998 9.076289999999917 L 59.22844999999998 8.664369999999916 L 60.14303999999998 8.261379999999916 L 61.06155999999998 7.867679999999916 L 61.969009999999976 7.488979999999915 L 62.89503999999997 7.1127799999999155 L 63.824639999999974 6.745869999999916 L 64.75816999999998 6.387889999999915 L 65.69526999999998 6.039199999999915 L 66.63558999999998 5.700159999999915 L 67.57983999999998 5.370049999999915 L 68.52693999999998 5.049589999999915 L 69.47761999999999 4.738769999999915 L 70.43150999999999 4.437239999999916 L 71.38825999999999 4.145709999999916 L 72.34786999999999 3.863469999999916 L 73.31033999999998 3.591239999999916 L 74.27601999999999 3.329009999999916 L 75.24383999999999 3.076429999999916 L 76.21452 2.833489999999916 L 77.18735 2.6005499999999158 L 78.16302999999999 2.3779799999999156 L 79.14049999999999 2.1650499999999155 L 80.12010999999998 1.9621199999999155 L 81.10186999999998 1.7691999999999155 L 82.08540999999998 1.5862799999999155 L 83.07109999999999 1.4137199999999155 L 84.05785999999999 1.2508099999999156 L 85.04675999999999 1.0982599999999156 L 86.03674 0.9553499999999157 L 87.02814 0.8228099999999157 L 88.02096999999999 0.7002699999999157 L 89.01451999999999 0.5877299999999157 L 90.00949999999999 0.4848399999999157 L 91.00518999999998 0.3923099999999157 L 92.00159999999998 0.3094299999999157 L 92.99871999999998 0.23654999999991572 L 93.99654999999997 0.17366999999991573 L 94.99473999999996 0.12043999999991573 L 95.99328999999996 0.07720999999991573 L 96.99183999999995 0.04326999999991574 L 97.99074999999995 0.019329999999915738 L 98.99000999999996 0.005039999999915737 L 99.98891999999995 0.00003999999991573678 L 100.97174999999996 0.004679999999915737 L 101.97065999999995 0.018609999999915736 L 102.96920999999995 0.04218999999991574 L 103.96811999999994 0.07541999999991575 L 104.96630999999994 0.11864999999991574 L 105.96449999999993 0.17151999999991574 L 106.96232999999992 0.23403999999991576 L 107.95908999999992 0.3065599999999158 L 108.95549999999992 0.3887299999999158 L 109.95118999999991 0.4812599999999158 L 110.94580999999991 0.5834399999999158 L 111.93971999999991 0.6956199999999158 L 112.93219999999991 0.8177999999999157 L 113.92395999999991 0.9499899999999157 L 114.91393999999991 1.0921799999999158 L 115.90248999999991 1.2443699999999158 L 116.88960999999992 1.4069199999999158 L 117.87529999999992 1.5791199999999157 L 118.85883999999993 1.7616799999999158 L 119.84059999999992 1.9542399999999158 L 120.82056999999992 2.1568099999999157 L 121.79803999999992 2.3690199999999155 L 122.77336999999991 2.5915899999999157 L 123.74654999999991 2.8241699999999157 L 124.71722999999992 3.066389999999916 L 125.68540999999992 3.3186199999999157 L 126.65108999999993 3.580849999999916 L 127.61390999999992 3.852729999999916 L 128.57351999999992 4.134249999999916 L 129.53062999999992 4.425419999999916 L 130.48451999999992 4.726589999999916 L 131.43519999999992 5.037049999999916 L 132.38301999999993 5.357159999999916 L 133.32690999999994 5.686909999999916 L 134.26793999999995 6.0259499999999155 L 135.20503999999994 6.373919999999916 L 136.13891999999993 6.7315399999999155 L 137.06887999999992 7.098089999999916 L 137.99490999999992 7.473929999999916 L 138.91735999999992 7.858699999999915 L 139.44860999999992 8.085199999999915 L 140.36069999999992 8.482119999999915 L 141.27314999999993 8.889759999999916 L 142.18166999999994 9.306329999999916 L 143.08589999999995 9.732189999999916 L 143.98619999999994 10.166619999999917 L 144.88256999999993 10.610339999999917 L 145.77393999999993 11.062989999999918 L 146.66137999999992 11.524219999999918 L 147.54381999999993 11.994739999999918 L 148.42160999999993 12.473829999999918 L 149.29439999999994 12.962209999999917 L 150.16254999999995 13.459159999999917 L 151.02569999999994 13.964689999999917 L 151.88348999999994 14.479509999999918 L 152.73627999999994 15.002539999999918 L 153.58334999999994 15.534499999999918 L 154.42541999999995 16.075039999999916 L 155.26176999999996 16.623799999999918 L 156.09240999999994 17.18148999999992 L 156.91732999999994 17.747389999999918 L 157.73652999999993 18.32150999999992 L 158.54965999999993 18.904209999999917 L 159.35706999999994 19.494769999999917 L 160.15804999999995 20.093899999999916 L 160.95331999999993 20.700889999999916 L 161.74215999999993 21.315739999999916 L 162.52491999999992 21.938449999999918 L 163.30088999999992 22.568909999999917 L 164.07078999999993 23.207159999999917 L 164.83425999999994 23.853019999999916 L 165.59129999999993 24.506379999999915 L 166.34154999999993 25.167139999999915 L 167.08500999999993 25.835219999999914 L 167.82203999999993 26.510449999999913 L 168.55228999999994 27.192819999999912 L 169.27574999999993 27.882159999999914 L 169.99277999999993 28.578389999999914 L 170.70265999999992 29.281409999999912 L 171.1099399999999 29.690759999999912 L 171.80552999999992 30.400959999999912 L 172.49790999999993 31.12133999999991 L 173.18349999999992 31.848509999999912 L 173.86193999999992 32.582399999999915 L 174.53323999999992 33.32300999999991 L 175.19702999999993 34.07025999999991 L 175.85367999999994 34.82407999999991 L 176.50282999999993 35.58447999999991 L 177.14446999999993 36.35137999999991 L 177.77860999999993 37.12470999999991 L 178.40488999999994 37.90443999999991 L 179.02330999999992 38.69041999999991 L 179.63350999999992 39.48268999999991 L 180.23620999999991 40.281139999999915 L 180.83069999999992 41.08565999999991 L 181.41696999999994 41.896219999999914 L 181.99465999999993 42.712709999999916 L 182.56448999999992 43.53501999999992 L 183.12574999999993 44.36311999999992 L 183.67843999999994 45.196899999999914 L 184.22290999999993 46.036289999999916 L 184.75879999999992 46.88114999999991 L 185.28575999999993 47.731399999999915 L 185.80414999999994 48.586969999999916 L 186.31395999999992 49.447689999999916 L 186.81483999999992 50.31351999999992 L 187.30714999999992 51.18437999999992 L 187.79052999999993 52.06006999999992 L 188.26496999999992 52.94057999999992 L 188.73047999999991 53.82572999999992 L 189.18705999999992 54.71540999999992 L 189.63470999999993 55.60956999999992 L 190.07342999999992 56.50805999999992 L 190.5032199999999 57.410779999999924 L 190.92371999999992 58.31759999999993 L 191.33563999999993 59.22841999999993 L 191.73862999999992 60.14312999999993 L 192.1323299999999 61.06161999999993 L 192.51102999999992 61.96905999999993 L 192.88722999999993 62.89493999999993 L 193.25413999999992 63.82467999999993 L 193.61211999999992 64.75813999999993 L 193.96080999999992 65.69516999999993 L 194.29984999999994 66.63576999999994 L 194.62995999999993 67.57972999999994 L 194.95041999999992 68.52704999999995 L 195.26123999999993 69.47761999999994 L 195.56276999999994 70.43136999999994 L 195.85429999999994 71.38815999999994 L 196.13653999999994 72.34787999999995 L 196.40876999999995 73.31048999999994 L 196.67099999999994 74.27588999999995 L 196.92357999999993 75.24388999999995 L 197.16651999999993 76.21449999999994 L 197.39909999999995 77.18750999999995 L 197.62202999999994 78.16286999999994 L 197.83495999999994 79.14047999999994 L 198.03788999999995 80.12016999999994 L 198.23080999999993 81.10192999999994 L 198.41372999999993 82.08554999999994 L 198.58628999999993 83.07098999999994 L 198.74919999999995 84.05803999999993 L 198.90174999999994 85.04668999999994 L 199.04465999999994 86.03680999999995 L 199.17719999999994 87.02824999999994 L 199.29973999999993 88.02089999999994 L 199.41227999999992 89.01469999999993 L 199.51516999999993 90.00945999999993 L 199.60769999999994 91.00514999999993 L 199.69057999999993 92.00162999999993 L 199.76345999999992 92.99874999999993 L 199.82633999999993 93.99657999999992 L 199.87956999999994 94.99476999999992 L 199.92279999999994 95.99331999999991 L 199.95673999999994 96.9918699999999 L 199.98067999999995 97.9907799999999 L 199.99496999999994 98.99003999999991 L 199.99996999999993 99.9889499999999 L 199.99996999999993 100.0110999999999 L 199.99532999999994 100.9717799999999 z M 195.30414 99.05718 L 195.29056 98.10329 L 195.2677 97.14976 L 195.2359 96.19658 L 195.19446 95.24376 L 195.14409 94.29164999999999 L 195.08407 93.34007999999999 L 195.01476 92.38929999999999 L 194.93616 91.43941 L 194.84827 90.49038 L 194.75038 89.54235 L 194.64356 88.5955 L 194.52709000000002 87.64979 L 194.40098 86.70537 L 194.26522 85.7623 L 194.11981 84.82073 L 193.96512 83.8807 L 193.80078 82.94238 L 193.62715 82.00578 L 193.44352 81.07104 L 193.25060000000002 80.13819 L 193.04839 79.20738 L 192.83618 78.27871 L 192.61503000000002 77.35218 L 192.38388 76.42801 L 192.1438 75.50616 L 191.89407 74.58685 L 191.63505 73.67001 L 191.36639 72.75585000000001 L 191.0888 71.84440000000001 L 190.80192 70.93574000000001 L 190.50611 70.02997 L 190.20065 69.12710000000001 L 189.88662 68.22730000000001 L 189.5633 67.33061000000001 L 189.23105 66.43706 L 188.88986 65.5468 L 188.5401 64.65982000000001 L 188.18141 63.77602000000001 L 187.82022 62.91016000000001 L 187.44474 62.03354000000001 L 187.06033 61.16075000000001 L 186.6677 60.29184000000001 L 186.26685 59.42692000000001 L 185.85707 58.56610000000001 L 185.43907 57.709460000000014 L 185.01286 56.85710000000002 L 184.57771 56.009070000000015 L 184.13434999999998 55.165540000000014 L 183.68240999999998 54.326560000000015 L 183.22225999999998 53.492210000000014 L 182.75388999999998 52.662610000000015 L 182.27694 51.837800000000016 L 181.79142 51.01792000000002 L 181.29804 50.203040000000016 L 180.79609 49.393200000000014 L 180.28628 48.588540000000016 L 179.76825 47.789130000000014 L 179.242 46.995010000000015 L 178.70753 46.206280000000014 L 178.16521 45.423020000000015 L 177.61503 44.64529000000002 L 177.05662999999998 43.873140000000014 L 176.49072999999999 43.10670000000001 L 175.91697 42.34598000000001 L 175.3357 41.59105000000001 L 174.74657 40.84194000000001 L 174.14994 40.09880000000001 L 173.54581 39.361590000000014 L 172.93453 38.63038000000002 L 172.31575 37.90528000000002 L 171.68947 37.18625000000002 L 171.0564 36.47340000000002 L 170.41619 35.76673000000002 L 169.76919 35.066240000000015 L 169.11504000000002 34.37208000000002 L 168.4541 33.684170000000016 L 167.78316 32.99919000000001 L 167.40089 32.61474000000001 L 166.72316 31.943340000000013 L 166.03936000000002 31.278580000000012 L 165.34877000000003 30.620540000000013 L 164.65211000000002 29.969320000000014 L 163.94937000000002 29.325000000000014 L 163.24020000000002 28.687710000000013 L 162.52496000000002 28.05750000000001 L 161.80365000000003 27.434430000000013 L 161.07626000000002 26.818650000000012 L 160.34244 26.21020000000001 L 159.60291 25.609180000000013 L 158.85766 25.015620000000013 L 158.10598000000002 24.429640000000013 L 157.34894000000003 23.851340000000015 L 156.58583000000002 23.280720000000013 L 155.817 22.717920000000014 L 155.04281 22.162810000000015 L 154.26291 21.615840000000013 L 153.47729 21.076730000000012 L 152.68667000000002 20.545840000000013 L 151.89033000000003 20.022810000000014 L 151.08863000000002 19.507640000000013 L 150.28193000000002 19.001040000000014 L 149.46987000000001 18.502660000000013 L 148.65317000000002 18.012500000000014 L 147.83111000000002 17.530550000000012 L 147.00440000000003 17.056820000000013 L 146.17269000000005 16.59166000000001 L 145.33670000000004 16.134720000000012 L 144.49570000000003 15.686360000000013 L 143.65042000000003 15.246210000000014 L 142.80049000000002 14.814640000000013 L 141.94627000000003 14.391640000000013 L 141.08777000000003 13.976860000000013 L 140.22534000000005 13.570650000000013 L 139.35862000000006 13.173020000000013 L 138.48797000000005 12.783600000000014 L 137.60910000000004 12.400970000000013 L 137.11108000000004 12.188760000000013 L 136.23078000000004 11.821490000000013 L 135.34763000000004 11.462800000000014 L 134.46055000000004 11.112680000000013 L 133.57025000000004 10.771850000000013 L 132.67709000000005 10.439600000000013 L 131.78036000000006 10.116280000000012 L 130.88077000000007 9.801890000000013 L 129.97797000000006 9.496790000000013 L 129.07231000000004 9.200620000000013 L 128.16379000000003 8.913740000000013 L 127.25241000000004 8.636150000000013 L 126.33817000000003 8.367490000000013 L 125.42143000000003 8.108470000000013 L 124.50219000000003 7.858740000000013 L 123.58045000000003 7.618300000000014 L 122.65621000000003 7.387150000000013 L 121.72983000000004 7.165650000000014 L 120.80095000000003 6.953790000000014 L 119.87028000000002 6.751220000000014 L 118.93747000000002 6.5579400000000145 L 118.00287000000002 6.374660000000015 L 117.06613000000002 6.200670000000015 L 116.12760000000002 6.036330000000015 L 115.18764000000002 5.8812800000000145 L 114.24625000000002 5.736230000000014 L 113.30308000000002 5.600470000000014 L 112.35848000000003 5.4740000000000135 L 111.41281000000002 5.357530000000014 L 110.46571000000002 5.250350000000014 L 109.51789000000002 5.152820000000014 L 108.56864000000002 5.0645800000000145 L 107.61868000000001 4.985620000000014 L 106.66765000000001 4.916310000000014 L 105.71626 4.856290000000015 L 104.7638 4.805920000000015 L 103.81098 4.764480000000015 L 102.8578 4.732680000000015 L 101.90427 4.709820000000016 L 100.95002 4.6962400000000155 L 100.01113 4.691600000000015 L 99.05724 4.695890000000015 L 98.10334999999999 4.709470000000016 L 97.14981999999999 4.732330000000015 L 96.19663999999999 4.764130000000015 L 95.24381999999999 4.8055700000000146 L 94.29170999999998 4.855940000000015 L 93.34031999999998 4.915960000000014 L 92.38928999999997 4.985270000000014 L 91.43932999999997 5.063870000000014 L 90.49043999999996 5.151760000000014 L 89.54225999999997 5.249290000000014 L 88.59550999999998 5.356470000000013 L 87.64983999999997 5.472940000000013 L 86.70523999999997 5.5990500000000125 L 85.76241999999998 5.734810000000013 L 84.82067999999998 5.880220000000013 L 83.88071999999998 6.034910000000012 L 82.94254999999998 6.199250000000013 L 82.00580999999998 6.372880000000013 L 81.07120999999998 6.556510000000013 L 80.13839999999998 6.749430000000013 L 79.20736999999997 6.951640000000013 L 78.27883999999997 7.1638500000000125 L 77.35209999999998 7.385000000000012 L 76.42821999999998 7.616150000000013 L 75.50611999999998 7.8562300000000125 L 74.58687999999998 8.105960000000012 L 73.67013999999998 8.364980000000012 L 72.75589999999997 8.633640000000012 L 71.84451999999997 8.911230000000012 L 70.93563999999998 9.198110000000012 L 70.02997999999998 9.493920000000012 L 69.12717999999998 9.799380000000012 L 68.22723999999998 10.113410000000012 L 67.33050999999998 10.436730000000013 L 66.43699999999997 10.768980000000013 L 65.54669999999997 11.109810000000014 L 64.65996999999997 11.459930000000014 L 63.77609999999997 11.818620000000013 L 62.91008999999997 12.179810000000014 L 62.03336999999997 12.555650000000014 L 61.16057999999997 12.939710000000014 L 60.29171999999997 13.332340000000015 L 59.42678999999997 13.733190000000015 L 58.56613999999997 14.142970000000014 L 57.709419999999966 14.560970000000014 L 56.85705999999997 14.987540000000013 L 56.00905999999997 15.422330000000013 L 55.16552999999997 15.865690000000013 L 54.32652999999997 16.317630000000012 L 53.49217999999997 16.77778000000001 L 52.66257999999997 17.24615000000001 L 51.83776999999997 17.72310000000001 L 51.01788999999997 18.20862000000001 L 50.20300999999997 18.70200000000001 L 49.39316999999997 19.20395000000001 L 48.58850999999997 19.71376000000001 L 47.78905999999997 20.23179000000001 L 46.99493999999997 20.758040000000012 L 46.20624999999997 21.29251000000001 L 45.42294999999997 21.83483000000001 L 44.64521999999997 22.385090000000012 L 43.87309999999997 22.943240000000014 L 43.106629999999974 23.509220000000013 L 42.345909999999975 24.082950000000015 L 41.59097999999997 24.664400000000015 L 40.84190999999997 25.253450000000015 L 40.09872999999997 25.850080000000016 L 39.36151999999997 26.454140000000017 L 38.63034999999997 27.065600000000018 L 37.90520999999997 27.68438000000002 L 37.18617999999997 28.31038000000002 L 36.47329999999997 28.94352000000002 L 35.76662999999997 29.58373000000002 L 35.066179999999974 30.23091000000002 L 34.37197999999997 30.884950000000018 L 33.68406999999997 31.545810000000017 L 32.99908999999997 32.21671000000002 L 32.614749999999965 32.59884000000002 L 31.943379999999966 33.276570000000014 L 31.278589999999966 33.96062000000001 L 30.620579999999965 34.65096000000001 L 29.969359999999966 35.34762000000001 L 29.325039999999966 36.050500000000014 L 28.687749999999966 36.75960000000001 L 28.057539999999964 37.47488000000001 L 27.434469999999965 38.196300000000015 L 26.818689999999965 38.92379000000002 L 26.210239999999963 39.65736000000002 L 25.609219999999965 40.39693000000002 L 25.015679999999964 41.14243000000002 L 24.429719999999964 41.89379000000002 L 23.851399999999963 42.651040000000016 L 23.280789999999964 43.41405000000002 L 22.717969999999966 44.18277000000002 L 22.162989999999965 44.95710000000002 L 21.615919999999964 45.73708000000002 L 21.076819999999962 46.52252000000002 L 20.545739999999963 47.31343000000002 L 20.022739999999963 48.10970000000002 L 19.507859999999962 48.91125000000002 L 19.00114999999996 49.717990000000015 L 18.50265999999996 50.529910000000015 L 18.01242999999996 51.34683000000002 L 17.530479999999958 52.16875000000002 L 17.056889999999957 52.99553000000002 L 16.591629999999956 53.82709000000002 L 16.134759999999957 54.66337000000002 L 15.686289999999957 55.50426000000002 L 15.246289999999957 56.349670000000025 L 14.814679999999958 57.199510000000025 L 14.391569999999959 58.053690000000024 L 13.97689999999996 58.91211000000003 L 13.57068999999996 59.774680000000025 L 13.17298999999996 60.641310000000026 L 12.78374999999996 61.511900000000026 L 12.40104999999996 62.39083000000002 L 12.18854999999996 62.88921000000002 L 11.82124999999996 63.76922000000002 L 11.46262999999996 64.65270000000002 L 11.11272999999996 65.53957000000003 L 10.77161999999996 66.42973000000002 L 10.43939999999996 67.32314000000002 L 10.11610999999996 68.21976000000002 L 9.80182999999996 69.11945000000003 L 9.49661999999996 70.02218000000003 L 9.20051999999996 70.92788000000003 L 8.91359999999996 71.83644000000002 L 8.63585999999996 72.74785000000003 L 8.36744999999996 73.66194000000003 L 8.108289999999961 74.57868000000003 L 7.858529999999961 75.49799000000003 L 7.6181599999999605 76.41976000000003 L 7.38718999999996 77.34393000000003 L 7.16564999999996 78.27038000000003 L 6.95360999999996 79.19905000000003 L 6.75107999999996 80.12983000000003 L 6.55808999999996 81.06264000000003 L 6.37459999999996 81.99742000000003 L 6.2006499999999605 82.93402000000003 L 6.03623999999996 83.87241000000003 L 5.88139999999996 84.81244000000002 L 5.73613999999996 85.75404000000002 L 5.6003799999999595 86.69714000000002 L 5.474189999999959 87.64160000000003 L 5.35750999999996 88.58738000000002 L 5.250369999999959 89.53434000000003 L 5.152689999999959 90.48241000000003 L 5.064519999999959 91.43151000000003 L 4.985779999999959 92.38154000000003 L 4.916439999999959 93.33239000000003 L 4.856489999999959 94.28382000000003 L 4.805899999999959 95.23628000000004 L 4.76459999999996 96.18910000000004 L 4.73258999999996 97.14228000000004 L 4.7097999999999605 98.09617000000004 L 4.696189999999961 99.05042000000005 L 4.69168999999996 99.98895000000005 L 4.6961199999999605 100.94284000000005 L 4.70965999999996 101.89673000000005 L 4.73237999999996 102.85026000000005 L 4.76431999999996 103.80344000000005 L 4.805549999999959 104.75626000000005 L 4.856069999999959 105.70837000000006 L 4.915909999999959 106.66012000000006 L 4.98517999999996 107.61080000000007 L 5.06380999999996 108.56076000000007 L 5.15190999999996 109.50965000000008 L 5.24950999999996 110.45783000000007 L 5.3565499999999595 111.40458000000007 L 5.473159999999959 112.35025000000007 L 5.599239999999959 113.29485000000007 L 5.734889999999959 114.23767000000007 L 5.88007999999996 115.17941000000006 L 6.03484999999996 116.11937000000006 L 6.19915999999996 117.05754000000006 L 6.37299999999996 117.99428000000006 L 6.55641999999996 118.92888000000006 L 6.74933999999996 119.86169000000007 L 6.9517999999999605 120.79272000000007 L 7.16372999999996 121.72125000000007 L 7.38515999999996 122.64799000000006 L 7.61605999999996 123.57187000000006 L 7.85634999999996 124.49397000000006 L 8.10607999999996 125.41321000000006 L 8.36512999999996 126.32995000000007 L 8.63350999999996 127.24419000000007 L 8.91113999999996 128.15557000000007 L 9.19801999999996 129.06445000000008 L 9.49404999999996 129.9701100000001 L 9.799219999999961 130.8729100000001 L 10.11342999999996 131.7728500000001 L 10.43667999999996 132.66958000000008 L 10.76885999999996 133.56309000000007 L 11.109899999999959 134.45339000000007 L 11.459769999999958 135.34047000000007 L 11.818459999999957 136.22398000000007 L 12.179649999999958 137.08999000000006 L 12.555349999999958 137.96636000000007 L 12.939479999999959 138.83951000000008 L 13.33210999999996 139.7083700000001 L 13.733169999999959 140.57330000000007 L 14.142739999999959 141.43395000000007 L 14.560769999999959 142.29067000000006 L 14.98726999999996 143.14310000000006 L 15.42223999999996 143.99088000000006 L 15.86563999999996 144.83438000000007 L 16.31742999999996 145.67359000000008 L 16.77765999999996 146.5078000000001 L 17.246249999999957 147.33736000000007 L 17.723199999999956 148.16228000000007 L 18.208469999999956 148.98220000000006 L 18.702009999999955 149.79712000000006 L 19.203789999999955 150.60668000000007 L 19.713789999999957 151.41159000000007 L 20.231939999999955 152.2107900000001 L 20.758199999999956 153.00499000000008 L 21.292529999999957 153.79383000000007 L 21.834849999999957 154.57695000000007 L 22.385129999999958 155.35471000000007 L 22.94328999999996 156.12675000000007 L 23.509279999999958 156.89344000000008 L 24.08301999999996 157.6540500000001 L 24.66446999999996 158.4089500000001 L 25.25353999999996 159.15813000000009 L 25.850129999999957 159.9012400000001 L 26.454229999999956 160.6386300000001 L 27.065689999999957 161.3695900000001 L 27.68446999999996 162.09483000000012 L 28.31046999999996 162.8136400000001 L 28.94364999999996 163.5267400000001 L 29.58385999999996 164.2334100000001 L 30.23100999999996 164.9336500000001 L 30.88508999999996 165.62817000000013 L 31.54594999999996 166.3159000000001 L 32.21684999999996 167.0007700000001 L 32.598939999999956 167.3851800000001 L 33.27666999999995 168.0564800000001 L 33.96068999999995 168.72135000000011 L 34.65102999999995 169.37943000000013 L 35.34768999999995 170.03072000000012 L 36.05052999999995 170.6748600000001 L 36.759659999999954 171.3122200000001 L 37.474899999999955 171.94243000000012 L 38.19631999999996 172.56550000000013 L 38.92384999999996 173.18142000000012 L 39.65737999999996 173.7898400000001 L 40.39694999999996 174.3907600000001 L 41.14240999999996 174.98417000000012 L 41.89380999999996 175.57008000000013 L 42.651029999999956 176.14849000000012 L 43.41403999999996 176.71904000000012 L 44.18275999999996 177.28209000000012 L 44.95712999999996 177.83692000000013 L 45.73706999999996 178.38425000000012 L 46.52250999999996 178.92336000000012 L 47.31341999999996 179.45425000000012 L 48.10968999999996 179.97728000000012 L 48.91123999999996 180.4921000000001 L 49.717979999999955 180.9987000000001 L 50.529899999999955 181.4974400000001 L 51.346849999999954 181.9876000000001 L 52.168729999999954 182.4695500000001 L 52.99550999999995 182.9432800000001 L 53.82706999999996 183.4084400000001 L 54.66334999999996 183.8653800000001 L 55.50423999999996 184.3137400000001 L 56.34962999999996 184.7535300000001 L 57.19948999999996 185.1854600000001 L 58.05352999999996 185.6084600000001 L 58.91202999999996 186.0232400000001 L 59.774819999999956 186.4294500000001 L 60.641179999999956 186.82708000000008 L 61.511829999999954 187.21614000000008 L 62.39069999999995 187.5987700000001 L 62.88907999999995 187.8113400000001 L 63.76937999999995 188.17861000000008 L 64.65288999999994 188.53730000000007 L 65.53961999999994 188.88742000000008 L 66.42991999999994 189.2282500000001 L 67.32307999999993 189.56050000000008 L 68.21980999999994 189.88382000000007 L 69.11939999999994 190.19821000000007 L 70.02219999999994 190.50331000000008 L 70.92785999999994 190.79948000000007 L 71.83637999999993 191.08636000000007 L 72.74775999999993 191.36431000000007 L 73.66199999999994 191.63261000000008 L 74.57873999999994 191.89163000000008 L 75.49797999999994 192.14136000000008 L 76.41971999999994 192.38180000000008 L 77.34395999999994 192.6129500000001 L 78.27033999999993 192.8344500000001 L 79.19921999999994 193.0463100000001 L 80.12988999999995 193.2488800000001 L 81.06269999999995 193.4421600000001 L 81.99729999999995 193.62544000000008 L 82.93403999999995 193.7994300000001 L 83.87256999999995 193.9637700000001 L 84.81252999999995 194.11882000000008 L 85.75391999999995 194.26387000000008 L 86.69708999999995 194.3996300000001 L 87.64168999999994 194.5261000000001 L 88.58735999999995 194.6425700000001 L 89.53445999999995 194.7497500000001 L 90.48227999999995 194.8472800000001 L 91.43152999999995 194.9355200000001 L 92.38148999999996 195.0144800000001 L 93.33251999999996 195.0837900000001 L 94.28390999999996 195.14381000000012 L 95.23636999999997 195.1941800000001 L 96.18918999999997 195.2356200000001 L 97.14236999999997 195.2674200000001 L 98.09589999999997 195.2902800000001 L 99.05014999999997 195.3038600000001 L 99.98903999999997 195.3085000000001 L 100.94292999999998 195.3042100000001 L 101.89681999999998 195.2906300000001 L 102.85034999999998 195.2677700000001 L 103.80352999999998 195.2359700000001 L 104.75634999999998 195.1945300000001 L 105.70845999999999 195.1441600000001 L 106.66020999999999 195.0841400000001 L 107.61089 195.0148300000001 L 108.56085 194.9362300000001 L 109.50974000000001 194.84834000000012 L 110.45756 194.75081000000011 L 111.40466 194.64363000000012 L 112.35033000000001 194.52716000000012 L 113.29493000000001 194.4006900000001 L 114.23775 194.2652900000001 L 115.17949 194.1198800000001 L 116.11945 193.96519000000012 L 117.05762 193.8008500000001 L 117.99436 193.6272200000001 L 118.92896 193.4435900000001 L 119.86177 193.25067000000013 L 120.79280000000001 193.04846000000012 L 121.72133000000001 192.83625000000012 L 122.64771 192.61510000000013 L 123.57195 192.3839500000001 L 124.49405 192.1438700000001 L 125.41329 191.8941400000001 L 126.33003000000001 191.63477000000012 L 127.24427000000001 191.3664700000001 L 128.15565 191.0888800000001 L 129.06453000000002 190.8020000000001 L 129.97019000000003 190.50619000000012 L 130.87299000000004 190.2007300000001 L 131.77293000000003 189.8867000000001 L 132.66966000000002 189.5633800000001 L 133.56317 189.23113000000012 L 134.45347 188.8903000000001 L 135.3402 188.5401800000001 L 136.22407 188.1814900000001 L 137.09008 187.82030000000012 L 137.9668 187.4448200000001 L 138.83959000000002 187.0604100000001 L 139.70845000000003 186.6677800000001 L 140.57338000000001 186.26693000000012 L 141.43403 185.8571500000001 L 142.29075 185.4391500000001 L 143.14318 185.0125800000001 L 143.99096 184.5777900000001 L 144.83446 184.1344300000001 L 145.67367000000002 183.6824900000001 L 146.50788000000003 183.2223400000001 L 147.33744000000002 182.7539700000001 L 148.16236 182.2770200000001 L 148.98228 181.7915000000001 L 149.7972 181.2981200000001 L 150.60711 180.7961700000001 L 151.41167000000002 180.28636000000012 L 152.21122000000003 179.7683300000001 L 153.00506000000001 179.2417200000001 L 153.7939 178.7076100000001 L 154.57702 178.1652900000001 L 155.35478 177.6151100000001 L 156.12682 177.0567100000001 L 156.89351000000002 176.4908100000001 L 157.65412000000003 175.9170500000001 L 158.40902000000003 175.3357800000001 L 159.15820000000002 174.7466500000001 L 159.90131000000002 174.1500200000001 L 160.63870000000003 173.5458900000001 L 161.36966000000004 172.9342600000001 L 162.09490000000005 172.31548000000012 L 162.81371000000004 171.6895600000001 L 163.52681000000004 171.0564900000001 L 164.23348000000004 170.4162800000001 L 164.93372000000005 169.76892000000012 L 165.62788000000006 169.11513000000014 L 166.31597000000005 168.45419000000012 L 167.00084000000004 167.78325000000012 L 167.38525000000004 167.40098000000012 L 168.05655000000004 166.72325000000012 L 168.72142000000005 166.03945000000013 L 169.37950000000006 165.34886000000014 L 170.03079000000005 164.65220000000014 L 170.67493000000005 163.94946000000013 L 171.31229000000005 163.24029000000013 L 171.94250000000005 162.52505000000014 L 172.56557000000006 161.80374000000015 L 173.18149000000005 161.07635000000013 L 173.78991000000005 160.34253000000012 L 174.39083000000005 159.60300000000012 L 174.98424000000006 158.85775000000012 L 175.57051000000007 158.10607000000013 L 176.14856000000006 157.34903000000014 L 176.71947000000006 156.58592000000013 L 177.28216000000006 155.81745000000012 L 177.83699000000007 155.04290000000012 L 178.38432000000006 154.26300000000012 L 178.92343000000005 153.47738000000012 L 179.45432000000005 152.68676000000013 L 179.97735000000006 151.89042000000015 L 180.49217000000004 151.08872000000014 L 180.99913000000004 150.28202000000013 L 181.49751000000003 149.47032000000013 L 181.98767000000004 148.65326000000013 L 182.46962000000005 147.83120000000014 L 182.94335000000004 147.00449000000015 L 183.40851000000004 146.17314000000016 L 183.86545000000004 145.33679000000015 L 184.31381000000005 144.49579000000014 L 184.75396000000003 143.65051000000014 L 185.18553000000003 142.80058000000014 L 185.60853000000003 141.94636000000014 L 186.02331000000004 141.08786000000015 L 186.42952000000002 140.22543000000016 L 186.82715000000002 139.35871000000017 L 187.21621000000002 138.48806000000016 L 187.59920000000002 137.60919000000015 L 187.81141000000002 137.11117000000016 L 188.17868 136.23087000000015 L 188.53737 135.34772000000015 L 188.88749 134.46064000000015 L 189.22832000000002 133.57034000000016 L 189.56057 132.67718000000016 L 189.88389 131.78045000000017 L 190.19828 130.88086000000018 L 190.50338000000002 129.97806000000017 L 190.79955 129.07240000000016 L 191.08643 128.16388000000015 L 191.36402 127.25250000000015 L 191.63268000000002 126.33826000000015 L 191.89170000000001 125.42152000000014 L 192.14143 124.50228000000014 L 192.38187000000002 123.58054000000014 L 192.61302000000003 122.65630000000014 L 192.83452000000003 121.72992000000015 L 193.04638000000003 120.80104000000014 L 193.24895000000004 119.87037000000014 L 193.44223000000002 118.93756000000013 L 193.62551000000002 118.00296000000013 L 193.79950000000002 117.06622000000013 L 193.96384000000003 116.12769000000013 L 194.11889000000002 115.18773000000013 L 194.26394000000002 114.24634000000013 L 194.39970000000002 113.30317000000014 L 194.52617000000004 112.35857000000014 L 194.64264000000003 111.41290000000014 L 194.74982000000003 110.46580000000013 L 194.84735000000003 109.51798000000014 L 194.93559000000005 108.56873000000013 L 195.01455000000004 107.61877000000013 L 195.08386000000004 106.66774000000012 L 195.14388000000005 105.71635000000012 L 195.19425000000004 104.76389000000012 L 195.23569000000003 103.81107000000011 L 195.26749000000004 102.85789000000011 L 195.29035000000005 101.90436000000011 L 195.30393000000004 100.95011000000011 L 195.30857000000003 100.01122000000011 L 195.30857000000003 99.98907000000011 z" stroke-linecap="round"/>
</g>
</svg>